<?xml version="1.0" encoding="UTF-8" standalone="no"?>
<svg
   height="1122.5197"
   width="793.70081"
   version="1.1"
   id="svg2227"
   sodipodi:docname="flag_template.svg"
   inkscape:version="1.2.1 (9c6d41e410, 2022-07-14)"
   xml:space="preserve"
   xmlns:inkscape="http://www.inkscape.org/namespaces/inkscape"
   xmlns:sodipodi="http://sodipodi.sourceforge.net/DTD/sodipodi-0.dtd"
   xmlns="http://www.w3.org/2000/svg"
   xmlns:svg="http://www.w3.org/2000/svg"><defs
     id="defs21"><inkscape:path-effect
       effect="fillet_chamfer"
       id="path-effect2421"
       is_visible="true"
       lpeversion="1"
       nodesatellites_param="F,0,0,1,0,17.505257,0,1 @ F,0,0,1,0,93.215451,0,1 @ F,0,0,1,0,17.419669,0,1 @ F,0,0,1,0,18.415866,0,1 @ F,0,0,1,0,0,0,1 @ F,0,0,1,0,0,0,1 @ F,0,0,1,0,0,0,1 @ F,0,0,1,0,0,0,1 @ F,0,0,1,0,22.058943,0,1"
       unit="px"
       method="auto"
       mode="F"
       radius="0"
       chamfer_steps="1"
       flexible="false"
       use_knot_distance="true"
       apply_no_radius="true"
       apply_with_radius="true"
       only_selected="false"
       hide_knots="false" /><inkscape:path-effect
       effect="fillet_chamfer"
       id="path-effect1713"
       is_visible="true"
       lpeversion="1"
       nodesatellites_param="F,1,0,1,0,0.0315087,0,1 @ F,1,0,1,0,0.32686814,0,1 @ F,1,0,1,0,0.076569495,0,1 @ F,1,0,1,0,0.46850012,0,1 | F,1,0,1,0,0.31502087,0,1 @ F,1,0,1,0,0.062280019,0,1 @ F,1,0,1,0,0.35414805,0,1 @ F,1,0,1,0,0.046220932,0,1 | F,1,0,1,0,0.1,0,1 @ F,1,0,1,0,0.1,0,1 @ F,1,0,1,0,0.35054413,0,1 @ F,1,0,1,0,0.040282593,0,1 | F,1,0,1,0,0.20354663,0,1 @ F,1,0,1,0,0.021234563,0,1 @ F,1,0,1,0,0.33566612,0,1 @ F,1,0,1,0,0.034787745,0,1 | F,1,0,1,0,0.21351021,0,1 @ F,1,0,1,0,0.031566171,0,1 @ F,1,0,1,0,0.41343915,0,1 @ F,1,0,1,0,0.029137355,0,1 | F,1,0,1,0,0.23614236,0,1 @ F,1,0,1,0,0.033596857,0,1 @ F,1,0,1,0,0.39848206,0,1 @ F,1,0,1,0,0.036567711,0,1 | F,1,0,1,0,0.1,0,1 @ F,1,0,1,0,0.001805705,0,1 @ F,1,0,1,0,0.4886359,0,1 @ F,1,0,1,0,0.044456746,0,1 @ F,1,0,1,0,5.1817734,0,1 @ F,1,0,1,0,0,0,1 @ F,1,0,1,0,0,0,1 @ F,1,0,1,0,0.1,0,1"
       unit="px"
       method="auto"
       mode="F"
       radius="10"
       chamfer_steps="1"
       flexible="true"
       use_knot_distance="true"
       apply_no_radius="true"
       apply_with_radius="true"
       only_selected="false"
       hide_knots="false" /></defs><sodipodi:namedview
     id="namedview19"
     pagecolor="#ffffff"
     bordercolor="#000000"
     borderopacity="0.25"
     inkscape:showpageshadow="2"
     inkscape:pageopacity="0.0"
     inkscape:pagecheckerboard="0"
     inkscape:deskcolor="#d1d1d1"
     showgrid="false"
     inkscape:zoom="1.1461973"
     inkscape:cx="-111.23739"
     inkscape:cy="-126.9415"
     inkscape:window-width="1920"
     inkscape:window-height="991"
     inkscape:window-x="-9"
     inkscape:window-y="-9"
     inkscape:window-maximized="1"
     inkscape:current-layer="svg2227" /><g
     id="de"><path
       d="M 61.436962,2 H 16.563038 C 11.628201,2 9.866819,2.5845126 8.070258,3.5453238 6.119529,4.5885853 4.5885853,6.119529 3.5453238,8.070258 2.5845126,9.866819 2,11.628201 2,16.563038 v 28.873924 c 0,4.934837 0.5845126,6.696219 1.5453238,8.49278 1.0432615,1.950729 2.5742052,3.481673 4.5249342,4.524934 C 9.866819,59.415487 11.628201,60 16.563038,60 h 44.873924 c 4.934837,0 6.696219,-0.584513 8.49278,-1.545324 1.950729,-1.043261 3.481673,-2.574205 4.524934,-4.524934 C 75.415487,52.133181 76,50.371799 76,45.436962 V 16.563038 C 76,11.628201 75.415487,9.866819 74.454676,8.070258 73.411415,6.119529 71.880471,4.5885853 69.929742,3.5453238 68.133181,2.5845126 66.371799,2 61.436962,2 Z"
       id="path54"
       style="fill:#ff4b4b;fill-rule:nonzero;stroke:none;stroke-width:4" /><g
       id="g244"
       transform="matrix(0.10819165,0,0,0.135,4,4)"><path
         fill="#ffb700"
         d="M 0,0 H 647 V 400 H 0 Z"
         id="path229"
         style="fill:#ffc800;fill-opacity:1" /><path
         fill="#91008c"
         d="m 165.06209,200.03785 c 5.50349,-44.94391 31.99044,-83.85649 69.97901,-107.79088 42.98472,-27.082171 133.93093,-27.082072 176.91593,-3.07e-4 38.01329,23.949447 64.51056,62.896127 69.99122,107.876147 1.16293,9.54413 1.16282,25.21037 -0.002,34.75419 -0.58634,4.80226 -1.41251,9.53563 -2.46648,14.18939 -2.24501,9.91275 2.98511,18.55198 13.05575,19.97344 C 545.0236,276.44851 604.78067,290.91022 647,307.696 V 0 H 0 v 307.696 c 41.255459,-16.40344 99.257018,-30.58694 150.85892,-38.13811 12.05387,-1.7639 18.28636,-12.11947 15.90262,-24.0545 -0.69368,-3.47316 -1.26094,-6.98842 -1.69693,-10.54143 -1.17676,-9.58995 -1.17687,-25.33384 -0.003,-34.92411 z"
         id="path231"
         style="fill:#9069cd;fill-opacity:1"
         inkscape:path-effect="#path-effect2421"
         inkscape:original-d="M 164,217.5 C 164,134.381 235.41,67 323.499,67 411.588,67 483,134.381 483,217.5 c 0,17.237 -3.08,33.793 -8.733,49.216 56.384,6.346 125.523,22.21 172.733,40.98 V 0 H 0 V 307.696 C 47.21,288.925 116.349,273.061 172.733,266.716 167.08,251.293 164,234.737 164,217.5 Z" /><path
         d="m 353.06464,163.375 -57.28064,0 a 5.777273,5.777273 146.41659 0 0 -5.32456,3.53541 l -0.98707,2.34435 a 3.2560129,3.2560129 54.129662 0 0 3.26051,4.50914 l 61.75736,-4.94052 a 1.9535239,1.9535239 121.94557 0 0 1.66137,-2.66438 l -0.36874,-0.93444 a 2.9222108,2.9222108 34.232501 0 0 -2.71823,-1.84956 z m -78.9363,20.39941 -1.44857,3.44023 a 3.804635,3.804635 53.736663 0 0 3.86194,5.26446 l 90.92943,-8.53305 a 3.156048,3.156048 120.42622 0 0 2.59308,-4.41517 l -1.51994,-3.44837 a 5.9333182,5.9333182 30.819858 0 0 -5.90246,-3.52135 l -82.08755,6.56683 a 7.6327688,7.6327688 144.13031 0 0 -6.42593,4.64642 z M 256.2743,200.0579 a 7.5666926,7.5666926 54.855397 0 0 7.6004,10.7964 l 116.87835,-11.32774 a 3.2909563,3.2909563 120.17937 0 0 2.6865,-4.6197 l -1.43027,-3.19657 a 6.9466784,6.9466784 30.266718 0 0 -6.98993,-4.07915 l -116.6011,10.94211 a 2.6610016,2.6610016 145.29793 0 0 -2.14395,1.48465 z m -21.69116,21.43599 -4.47822,10.47237 a 2.2006649,2.2006649 53.720991 0 0 2.2424,3.05501 l 165.139,-16.514 a 4.022548,4.022548 119.16544 0 0 3.21646,-5.76333 l -2.5581,-5.25454 a 8.0293576,8.0293576 29.252939 0 0 -7.99384,-4.4773 L 239.947,217.56936 a 6.5174808,6.5174808 143.80849 0 0 -5.36386,3.92453 z m -23.09213,23.44048 -3.21262,6.97697 a 3.9683429,3.9683429 54.615841 0 0 3.98441,5.60989 l 203.65069,-19.58254 a 5.4896298,5.4896298 121.80968 0 0 4.6034,-7.42172 l -1.51789,-3.97743 a 7.7995441,7.7995441 31.700721 0 0 -8.06301,-4.97995 l -193.84933,19.38445 a 6.9181971,6.9181971 144.50688 0 0 -5.59565,3.99033 z m -25.49403,23.90061 -3.12385,6.78327 a 5.1832036,5.1832036 54.934327 0 0 5.14695,7.3327 l 246.2744,-20.93348 a 6.549703,6.549703 121.39473 0 0 5.50286,-9.017 l -1.68278,-4.09244 a 12.209334,12.209334 31.077849 0 0 -12.46055,-7.51012 L 193.15179,263.7536 a 8.8048496,8.8048496 144.61745 0 0 -7.15481,5.08138 z M 647,392.481 l 0,-67.37886 c 0,-0.16134 -0.1229,-0.3369 -0.27456,-0.39197 -46.652,-16.94029 -116.70911,-31.11924 -165.4739,-36.2565 -6.62787,-0.69823 -13.88318,-6.18544 -16.18702,-12.43932 A 16.904699,16.904699 32.482161 0 0 447.91247,265.0948 C 296.12638,276.14416 169.045,288.08558 163.343,288.711 114.602,294.064 45.89,308.104 0,324.813 V 335.3 A 64.7,64.7 45 0 0 64.7,400 H 639.481 A 7.519,7.519 135 0 0 647,392.481 Z"
         id="path233"
         inkscape:path-effect="#path-effect1713"
         inkscape:original-d="m 355.053,163.375 h -63.105 l -4.554,10.816 69.726,-5.578 z m -79.124,16.123 -5.716,13.575 101.617,-9.536 -4.986,-11.312 z m -19,19.215 -6.547,13.449 134.927,-13.077 -5.333,-11.919 z m -20.827,19.229 -7.462,17.45 174.589,-17.459 -7.526,-15.459 z m -22.955,23.396 -7.756,16.844 217.695,-20.933 -6.214,-16.283 z m -25.033,22.9 -8.965,19.467 264.045,-22.444 -8.524,-20.73 z M 647,400 V 324.81 C 596.367,306.376 517.951,291.193 469.236,287.338 l -8.537,-23.174 -287.61723,20.93726 c -5.277,-0.034 -6.80277,3.28774 -9.73877,3.60974 C 114.602,294.064 45.89,308.104 0,324.813 V 400 Z"
         style="fill:#4c4c4c;fill-opacity:1"
         sodipodi:nodetypes="ccccccccccccccccccccccccccccccccccccccc" /></g><path
       style="fill:none;fill-rule:nonzero;stroke:#ffffff;stroke-width:4"
       d="M 61.436966,2 H 16.563038 C 11.628201,2 9.866819,2.584513 8.070258,3.545324 6.119529,4.588586 4.588585,6.119529 3.545324,8.070259 2.584513,9.86682 2,11.628202 2,16.563039 v 28.873923 c 0,4.934837 0.584513,6.696219 1.545324,8.49278 1.043261,1.950729 2.574205,3.481673 4.524934,4.524934 C 9.866819,59.415487 11.628201,60 16.563038,60 h 44.873928 c 4.93484,0 6.69622,-0.584513 8.49278,-1.545324 1.95073,-1.043261 3.48167,-2.574205 4.52493,-4.524934 0.96081,-1.796561 1.54533,-3.557943 1.54533,-8.49278 V 16.563039 c 0,-4.934837 -0.58452,-6.696219 -1.54533,-8.49278 -1.04326,-1.95073 -2.5742,-3.481673 -4.52493,-4.524935 C 68.133186,2.584513 66.371806,2 61.436966,2 Z"
       id="border" /></g></svg>
