<?xml version="1.0" encoding="UTF-8" standalone="no"?>
<svg
   height="62"
   width="78.000008"
   version="1.1"
   id="svg2227"
   sodipodi:docname="ido.svg"
   inkscape:export-filename="ido.svg"
   inkscape:export-xdpi="96"
   inkscape:export-ydpi="96"
   inkscape:version="1.2.1 (9c6d41e410, 2022-07-14)"
   xmlns:inkscape="http://www.inkscape.org/namespaces/inkscape"
   xmlns:sodipodi="http://sodipodi.sourceforge.net/DTD/sodipodi-0.dtd"
   xmlns="http://www.w3.org/2000/svg"
   xmlns:svg="http://www.w3.org/2000/svg">
  <defs
     id="defs63">
    <inkscape:path-effect
       effect="fillet_chamfer"
       id="path-effect951"
       is_visible="true"
       lpeversion="1"
       nodesatellites_param="F,0,0,1,0,2,0,1 @ F,0,0,1,0,2,0,1 @ F,0,0,1,0,2,0,1 @ F,0,0,1,0,2,0,1 @ F,0,0,1,0,2,0,1 @ F,0,0,1,0,2,0,1"
       unit="px"
       method="auto"
       mode="F"
       radius="2"
       chamfer_steps="1"
       flexible="false"
       use_knot_distance="true"
       apply_no_radius="true"
       apply_with_radius="true"
       only_selected="false"
       hide_knots="false" />
    <inkscape:path-effect
       effect="fillet_chamfer"
       id="path-effect2647"
       is_visible="true"
       lpeversion="1"
       nodesatellites_param="F,0,0,1,0,1,0,1 @ F,0,0,1,0,1,0,1 @ F,0,0,1,0,1,0,1 @ F,0,0,1,0,1,0,1 @ F,0,0,1,0,1,0,1 @ F,0,0,1,0,1,0,1"
       unit="px"
       method="auto"
       mode="F"
       radius="1"
       chamfer_steps="1"
       flexible="false"
       use_knot_distance="true"
       apply_no_radius="true"
       apply_with_radius="true"
       only_selected="false"
       hide_knots="false" />
    <inkscape:path-effect
       effect="fillet_chamfer"
       id="path-effect2645"
       is_visible="true"
       lpeversion="1"
       nodesatellites_param="F,0,0,1,0,2,0,7 @ F,0,0,1,0,2,0,7 @ F,0,0,1,0,2,0,7 @ F,0,0,1,0,2,0,7 @ F,0,0,1,0,2,0,7 @ F,0,0,1,0,2,0,7"
       unit="px"
       method="auto"
       mode="F"
       radius="2"
       chamfer_steps="7"
       flexible="false"
       use_knot_distance="true"
       apply_no_radius="true"
       apply_with_radius="true"
       only_selected="false"
       hide_knots="false" />
  </defs>
  <sodipodi:namedview
     id="namedview61"
     pagecolor="#ffffff"
     bordercolor="#000000"
     borderopacity="0.25"
     inkscape:showpageshadow="2"
     inkscape:pageopacity="0.0"
     inkscape:pagecheckerboard="0"
     inkscape:deskcolor="#d1d1d1"
     showgrid="false"
     inkscape:zoom="5.7429757"
     inkscape:cx="18.022016"
     inkscape:cy="21.15628"
     inkscape:window-width="1920"
     inkscape:window-height="991"
     inkscape:window-x="-9"
     inkscape:window-y="-9"
     inkscape:window-maximized="1"
     inkscape:current-layer="de" />
  <g
     id="palette">
    <ellipse
       ry="20"
       rx="19.849623"
       cy="-10"
       cx="-80.150375"
       id="white"
       style="display:inline;opacity:1;fill:#ffffff;fill-opacity:1;fill-rule:nonzero;stroke:none;stroke-width:6.00702;stroke-linecap:round;stroke-linejoin:round;stroke-miterlimit:4;stroke-dasharray:none;stroke-dashoffset:0;stroke-opacity:1" />
    <ellipse
       ry="20"
       rx="19.849623"
       cy="-60"
       cx="-80.150375"
       id="gray"
       style="opacity:1;fill:#eeeeee;fill-opacity:1;fill-rule:nonzero;stroke:none;stroke-width:6.00702;stroke-linecap:round;stroke-linejoin:round;stroke-miterlimit:4;stroke-dasharray:none;stroke-dashoffset:0;stroke-opacity:1" />
    <ellipse
       ry="20"
       rx="19.849623"
       cy="-110"
       cx="-80.150375"
       id="black"
       style="display:inline;opacity:1;fill:#4c4c4c;fill-opacity:1;fill-rule:nonzero;stroke:none;stroke-width:6.00702;stroke-linecap:round;stroke-linejoin:round;stroke-miterlimit:4;stroke-dasharray:none;stroke-dashoffset:0;stroke-opacity:1" />
    <ellipse
       ry="20"
       rx="19.849623"
       cy="-60"
       cx="-30.150375"
       id="lightblue"
       style="display:inline;opacity:1;fill:#1cb0f6;fill-opacity:1;fill-rule:nonzero;stroke:none;stroke-width:6.00702;stroke-linecap:round;stroke-linejoin:round;stroke-miterlimit:4;stroke-dasharray:none;stroke-dashoffset:0;stroke-opacity:1" />
    <ellipse
       ry="20"
       rx="19.849623"
       cy="-110"
       cx="-30.150375"
       id="darkblue"
       style="display:inline;opacity:1;fill:#1254a9;fill-opacity:1;fill-rule:nonzero;stroke:none;stroke-width:6.00702;stroke-linecap:round;stroke-linejoin:round;stroke-miterlimit:4;stroke-dasharray:none;stroke-dashoffset:0;stroke-opacity:1" />
    <ellipse
       ry="20"
       rx="19.849623"
       cy="-60"
       cx="19.849623"
       id="red"
       style="display:inline;opacity:1;fill:#ff4b4b;fill-opacity:1;fill-rule:nonzero;stroke:none;stroke-width:6.00702;stroke-linecap:round;stroke-linejoin:round;stroke-miterlimit:4;stroke-dasharray:none;stroke-dashoffset:0;stroke-opacity:1" />
    <ellipse
       ry="20"
       rx="19.849623"
       cy="-60"
       cx="69.849625"
       id="yellow"
       style="display:inline;opacity:1;fill:#ffc800;fill-opacity:1;fill-rule:nonzero;stroke:none;stroke-width:6.00702;stroke-linecap:round;stroke-linejoin:round;stroke-miterlimit:4;stroke-dasharray:none;stroke-dashoffset:0;stroke-opacity:1" />
    <ellipse
       ry="20"
       rx="19.849623"
       cy="-110"
       cx="69.849625"
       id="orange"
       style="display:inline;opacity:1;fill:#ff9600;fill-opacity:1;fill-rule:nonzero;stroke:none;stroke-width:6.00702;stroke-linecap:round;stroke-linejoin:round;stroke-miterlimit:4;stroke-dasharray:none;stroke-dashoffset:0;stroke-opacity:1" />
    <ellipse
       ry="20"
       rx="19.849623"
       cy="-160"
       cx="69.849625"
       id="brown"
       style="display:inline;opacity:1;fill:#ffce8e;fill-opacity:1;fill-rule:nonzero;stroke:none;stroke-width:6.00702;stroke-linecap:round;stroke-linejoin:round;stroke-miterlimit:4;stroke-dasharray:none;stroke-dashoffset:0;stroke-opacity:1" />
    <ellipse
       ry="20"
       rx="19.849623"
       cy="-60"
       cx="119.84962"
       id="green"
       style="display:inline;opacity:1;fill:#78c800;fill-opacity:1;fill-rule:nonzero;stroke:none;stroke-width:6.00702;stroke-linecap:round;stroke-linejoin:round;stroke-miterlimit:4;stroke-dasharray:none;stroke-dashoffset:0;stroke-opacity:1" />
  </g>
  <g
     id="de">
    <path
       d="M 61.436962,2 H 16.563038 C 11.628201,2 9.866819,2.5845126 8.070258,3.5453238 6.119529,4.5885853 4.5885853,6.119529 3.5453238,8.070258 2.5845126,9.866819 2,11.628201 2,16.563038 v 28.873924 c 0,4.934837 0.5845126,6.696219 1.5453238,8.49278 1.0432615,1.950729 2.5742052,3.481673 4.5249342,4.524934 C 9.866819,59.415487 11.628201,60 16.563038,60 h 44.873924 c 4.934837,0 6.696219,-0.584513 8.49278,-1.545324 1.950729,-1.043261 3.481673,-2.574205 4.524934,-4.524934 C 75.415487,52.133181 76,50.371799 76,45.436962 V 16.563038 C 76,11.628201 75.415487,9.866819 74.454676,8.070258 73.411415,6.119529 71.880471,4.5885853 69.929742,3.5453238 68.133181,2.5845126 66.371799,2 61.436962,2 Z"
       id="path54"
       style="fill:#1cb0f6;fill-opacity:1;fill-rule:nonzero;stroke:none;stroke-width:4" />
    <path
       sodipodi:type="star"
       style="opacity:1;fill:#eeeeee;fill-opacity:1;stroke:#ffffff;stroke-width:0;stroke-dasharray:none;stroke-opacity:1"
       id="path1176"
       inkscape:flatsided="false"
       sodipodi:sides="3"
       sodipodi:cx="-14.464027"
       sodipodi:cy="-13.410403"
       sodipodi:r1="8.544816"
       sodipodi:r2="4.3278685"
       sodipodi:arg1="0.51832847"
       sodipodi:arg2="1.54853"
       inkscape:rounded="0"
       inkscape:randomized="0"
       d="m -9.041423,-9.1515461 -3.326409,0.04243 a 269.87307,269.87307 179.69381 0 1 -3.999833,0.021375 l -3.473775,-0.00718 a 1.1745478,1.1745478 59.693814 0 1 -1.022168,-1.7487982 l 1.626459,-2.90197 a 269.87307,269.87307 119.69381 0 1 1.981405,-3.474644 l 1.743105,-3.004787 a 1.1745478,1.1745478 179.69381 0 1 2.025588,-0.01083 l 1.69995,2.85954 a 269.87307,269.87307 59.693814 0 1 2.0184277,3.45327 l 1.7306696,3.011966 a 1.1745478,1.1745478 119.69381 0 1 -1.0034193,1.7596229 z"
       inkscape:transform-center-x="0.17118188"
       inkscape:transform-center-y="2.4401371"
       transform="matrix(-1.3513649,0,0,-1.2430569,19.475817,19.301667)"
       inkscape:path-effect="#path-effect2645" />
    <path
       sodipodi:type="star"
       style="fill:#eeeeee;fill-opacity:1;stroke:#ffffff;stroke-width:0"
       id="path414"
       inkscape:flatsided="false"
       sodipodi:sides="3"
       sodipodi:cx="60.380596"
       sodipodi:cy="22.208956"
       sodipodi:r1="16.143366"
       sodipodi:r2="3.1618421"
       sodipodi:arg1="-1.5721135"
       sodipodi:arg2="-0.524916"
       inkscape:rounded="0"
       inkscape:randomized="0"
       inkscape:transform-center-x="0.097951595"
       inkscape:transform-center-y="-5.3144084"
       transform="matrix(1.2701748,0,0,1.3678129,-37.70575,4.604355)"
       d="m 60.731512,8.0306694 2.013055,10.6286946 a 5.6949158,5.6949158 59.924532 0 0 1.891319,3.265918 l 8.216756,7.036082 a 0.37606812,0.37606812 119.92453 0 1 -0.368748,0.640637 l -10.211247,-3.57099 a 5.6949158,5.6949158 179.92453 0 0 -3.774027,0.005 L 48.296816,29.63386 a 0.37606812,0.37606812 59.924532 0 1 -0.370434,-0.639663 l 8.198192,-7.057704 a 5.6949158,5.6949158 119.92453 0 0 1.882708,-3.270889 L 59.992331,8.031643 a 0.37606812,0.37606812 179.92453 0 1 0.739181,-9.736e-4 z"
       inkscape:path-effect="#path-effect951" />
    <path
       style="fill:none;fill-rule:nonzero;stroke:#ffffff;stroke-width:4"
       d="M 61.436966,2 H 16.563038 C 11.628201,2 9.866819,2.584513 8.070258,3.545324 6.119529,4.588586 4.588585,6.119529 3.545324,8.070259 2.584513,9.86682 2,11.628202 2,16.563039 v 28.873923 c 0,4.934837 0.584513,6.696219 1.545324,8.49278 1.043261,1.950729 2.574205,3.481673 4.524934,4.524934 C 9.866819,59.415487 11.628201,60 16.563038,60 h 44.873928 c 4.93484,0 6.69622,-0.584513 8.49278,-1.545324 1.95073,-1.043261 3.48167,-2.574205 4.52493,-4.524934 0.96081,-1.796561 1.54533,-3.557943 1.54533,-8.49278 V 16.563039 c 0,-4.934837 -0.58452,-6.696219 -1.54533,-8.49278 -1.04326,-1.95073 -2.5742,-3.481673 -4.52493,-4.524935 C 68.133186,2.584513 66.371806,2 61.436966,2 Z"
       id="border" />
  </g>
</svg>
