<?xml version="1.0" encoding="UTF-8" standalone="no"?>
<svg
   height="62"
   width="78.000008"
   version="1.1"
   id="svg2227"
   xmlns="http://www.w3.org/2000/svg"
   xmlns:svg="http://www.w3.org/2000/svg">
  <defs
     id="defs21" />
  <g
     id="de">
    <path
       d="M 61.436962,2 H 16.563038 C 11.628201,2 9.866819,2.5845126 8.070258,3.5453238 6.119529,4.5885853 4.5885853,6.119529 3.5453238,8.070258 2.5845126,9.866819 2,11.628201 2,16.563038 v 28.873924 c 0,4.934837 0.5845126,6.696219 1.5453238,8.49278 1.0432615,1.950729 2.5742052,3.481673 4.5249342,4.524934 C 9.866819,59.415487 11.628201,60 16.563038,60 h 44.873924 c 4.934837,0 6.696219,-0.584513 8.49278,-1.545324 1.950729,-1.043261 3.481673,-2.574205 4.524934,-4.524934 C 75.415487,52.133181 76,50.371799 76,45.436962 V 16.563038 C 76,11.628201 75.415487,9.866819 74.454676,8.070258 73.411415,6.119529 71.880471,4.5885853 69.929742,3.5453238 68.133181,2.5845126 66.371799,2 61.436962,2 Z"
       id="path54"
       style="fill:#eeeeee;fill-opacity:1;fill-rule:nonzero;stroke:none;stroke-width:4" />
    <path
       style="fill:#9069cd;fill-opacity:1;stroke:#ffffff;stroke-width:0"
       id="path3486"
       d="M 5.9609356,42.304687 5.9555112,-9.8015554 51.083553,16.246868 Z"
       transform="matrix(1.5511419,0,0,1.0363441,-5.2378425,14.157785)" />
    <path
       style="fill:#eeeeee;fill-opacity:1;stroke:#ffffff;stroke-width:0"
       id="path3881"
       d="m 45.065142,32.38086 -16.887161,-0.01191 7.452675,-12.887409 a 1.1547005,1.1547005 0.04041727 0 1 2,0.0014 z"
       transform="matrix(0.47373262,0,0,0.47353976,4.6511718,11.664578)" />
    <path
       style="fill:#eeeeee;fill-opacity:1;stroke:#ffffff;stroke-width:0"
       id="path3881-5-5"
       d="m 45.065142,32.38086 -16.887161,-0.01191 7.452675,-12.887409 a 1.1547005,1.1547005 0.04041727 0 1 2,0.0014 z"
       transform="matrix(0.47373262,0,0,-0.47353976,4.6511718,50.333625)" />
    <path
       style="fill:#eeeeee;fill-opacity:1;stroke:#ffffff;stroke-width:0"
       id="path3881-5-58"
       d="m 45.065142,32.38086 -16.887161,-0.01191 7.452675,-12.887409 a 1.1547005,1.1547005 0.04041727 0 1 2,0.0014 z"
       transform="matrix(0,0.47373262,-0.47353976,0,41.333625,13.651172)" />
    <path
       style="fill:#eeeeee;fill-opacity:1;stroke:#ffffff;stroke-width:0"
       id="path3881-5-6"
       d="m 45.065142,32.38086 -16.887161,-0.01191 7.452675,-12.887409 a 1.1547005,1.1547005 0.04041727 0 1 2,0.0014 z"
       transform="matrix(0,-0.47373262,0.47353976,0,2.6645783,48.348828)" />
    <path
       style="fill:none;fill-rule:nonzero;stroke:#ffffff;stroke-width:4"
       d="M 61.436966,2 H 16.563038 C 11.628201,2 9.866819,2.584513 8.070258,3.545324 6.119529,4.588586 4.588585,6.119529 3.545324,8.070259 2.584513,9.86682 2,11.628202 2,16.563039 v 28.873923 c 0,4.934837 0.584513,6.696219 1.545324,8.49278 1.043261,1.950729 2.574205,3.481673 4.524934,4.524934 C 9.866819,59.415487 11.628201,60 16.563038,60 h 44.873928 c 4.93484,0 6.69622,-0.584513 8.49278,-1.545324 1.95073,-1.043261 3.48167,-2.574205 4.52493,-4.524934 0.96081,-1.796561 1.54533,-3.557943 1.54533,-8.49278 V 16.563039 c 0,-4.934837 -0.58452,-6.696219 -1.54533,-8.49278 -1.04326,-1.95073 -2.5742,-3.481673 -4.52493,-4.524935 C 68.133186,2.584513 66.371806,2 61.436966,2 Z"
       id="border" />
  </g>
</svg>
