<?xml version="1.0" encoding="UTF-8" standalone="no"?>
<svg
   height="62"
   width="78.000008"
   version="1.1"
   id="svg2227"
   xmlns="http://www.w3.org/2000/svg"
   xmlns:svg="http://www.w3.org/2000/svg">
  <defs
     id="defs21" />
  <g
     id="palette">
    <ellipse
       ry="20"
       rx="19.849623"
       cy="-10"
       cx="-80.150375"
       id="white"
       style="display:inline;opacity:1;fill:#ffffff;fill-opacity:1;fill-rule:nonzero;stroke:none;stroke-width:6.00702;stroke-linecap:round;stroke-linejoin:round;stroke-miterlimit:4;stroke-dasharray:none;stroke-dashoffset:0;stroke-opacity:1" />
    <ellipse
       ry="20"
       rx="19.849623"
       cy="-60"
       cx="-80.150375"
       id="gray"
       style="opacity:1;fill:#eeeeee;fill-opacity:1;fill-rule:nonzero;stroke:none;stroke-width:6.00702;stroke-linecap:round;stroke-linejoin:round;stroke-miterlimit:4;stroke-dasharray:none;stroke-dashoffset:0;stroke-opacity:1" />
    <ellipse
       ry="20"
       rx="19.849623"
       cy="-110"
       cx="-80.150375"
       id="black"
       style="display:inline;opacity:1;fill:#4c4c4c;fill-opacity:1;fill-rule:nonzero;stroke:none;stroke-width:6.00702;stroke-linecap:round;stroke-linejoin:round;stroke-miterlimit:4;stroke-dasharray:none;stroke-dashoffset:0;stroke-opacity:1" />
    <ellipse
       ry="20"
       rx="19.849623"
       cy="-60"
       cx="-30.150375"
       id="lightblue"
       style="display:inline;opacity:1;fill:#1cb0f6;fill-opacity:1;fill-rule:nonzero;stroke:none;stroke-width:6.00702;stroke-linecap:round;stroke-linejoin:round;stroke-miterlimit:4;stroke-dasharray:none;stroke-dashoffset:0;stroke-opacity:1" />
    <ellipse
       ry="20"
       rx="19.849623"
       cy="-110"
       cx="-30.150375"
       id="darkblue"
       style="display:inline;opacity:1;fill:#1254a9;fill-opacity:1;fill-rule:nonzero;stroke:none;stroke-width:6.00702;stroke-linecap:round;stroke-linejoin:round;stroke-miterlimit:4;stroke-dasharray:none;stroke-dashoffset:0;stroke-opacity:1" />
    <ellipse
       ry="20"
       rx="19.849623"
       cy="-60"
       cx="19.849623"
       id="red"
       style="display:inline;opacity:1;fill:#ff4b4b;fill-opacity:1;fill-rule:nonzero;stroke:none;stroke-width:6.00702;stroke-linecap:round;stroke-linejoin:round;stroke-miterlimit:4;stroke-dasharray:none;stroke-dashoffset:0;stroke-opacity:1" />
    <ellipse
       ry="20"
       rx="19.849623"
       cy="-160"
       cx="-30.150377"
       id="red-6"
       style="display:inline;fill:#9069cd;fill-opacity:1;fill-rule:nonzero;stroke:none;stroke-width:6.00702;stroke-linecap:round;stroke-linejoin:round;stroke-miterlimit:4;stroke-dasharray:none;stroke-dashoffset:0;stroke-opacity:1" />
    <ellipse
       ry="20"
       rx="19.849623"
       cy="-110"
       cx="19.849623"
       id="red-6-8"
       style="display:inline;fill:#ffaade;fill-opacity:1;fill-rule:nonzero;stroke:none;stroke-width:6.00702;stroke-linecap:round;stroke-linejoin:round;stroke-miterlimit:4;stroke-dasharray:none;stroke-dashoffset:0;stroke-opacity:1" />
    <ellipse
       ry="20"
       rx="19.849623"
       cy="-60"
       cx="69.849625"
       id="yellow"
       style="display:inline;opacity:1;fill:#ffc800;fill-opacity:1;fill-rule:nonzero;stroke:none;stroke-width:6.00702;stroke-linecap:round;stroke-linejoin:round;stroke-miterlimit:4;stroke-dasharray:none;stroke-dashoffset:0;stroke-opacity:1" />
    <ellipse
       ry="20"
       rx="19.849623"
       cy="-110"
       cx="69.849625"
       id="orange"
       style="display:inline;opacity:1;fill:#ff9600;fill-opacity:1;fill-rule:nonzero;stroke:none;stroke-width:6.00702;stroke-linecap:round;stroke-linejoin:round;stroke-miterlimit:4;stroke-dasharray:none;stroke-dashoffset:0;stroke-opacity:1" />
    <ellipse
       ry="20"
       rx="19.849623"
       cy="-160"
       cx="69.849625"
       id="brown"
       style="display:inline;opacity:1;fill:#ffce8e;fill-opacity:1;fill-rule:nonzero;stroke:none;stroke-width:6.00702;stroke-linecap:round;stroke-linejoin:round;stroke-miterlimit:4;stroke-dasharray:none;stroke-dashoffset:0;stroke-opacity:1" />
    <ellipse
       ry="20"
       rx="19.849623"
       cy="-60"
       cx="119.84962"
       id="green"
       style="display:inline;opacity:1;fill:#78c800;fill-opacity:1;fill-rule:nonzero;stroke:none;stroke-width:6.00702;stroke-linecap:round;stroke-linejoin:round;stroke-miterlimit:4;stroke-dasharray:none;stroke-dashoffset:0;stroke-opacity:1" />
  </g>
  <g
     id="de-6"
     transform="translate(-114.52786,-0.9849714)">
    <g
       id="Group"
       transform="translate(118.52786,4.9849714)"
       fill-rule="nonzero"
       style="fill:none;stroke:none;stroke-width:1">
      <path
         d="M 57.436962,-2 H 12.563038 C 7.6282012,-2 5.8668192,-1.4154874 4.0702583,-0.45467615 2.119529,0.58858529 0.58858529,2.119529 -0.45467615,4.0702583 -1.4154874,5.8668192 -2,7.6282012 -2,12.563038 v 28.873924 c 0,4.934837 0.5845126,6.696219 1.54532385,8.49278 C 0.58858529,51.880471 2.119529,53.411415 4.0702583,54.454676 5.8668192,55.415487 7.6282012,56 12.563038,56 h 44.873924 c 4.934837,0 6.696219,-0.584513 8.49278,-1.545324 1.950729,-1.043261 3.481673,-2.574205 4.524934,-4.524934 C 71.415487,48.133181 72,46.371799 72,41.436962 V 12.563038 C 72,7.6282012 71.415487,5.8668192 70.454676,4.0702583 69.411415,2.119529 67.880471,0.58858529 65.929742,-0.45467615 64.133181,-1.4154874 62.371799,-2 57.436962,-2 Z"
         id="Rectangle-3"
         stroke="#ffffff"
         stroke-width="4"
         fill="#7ac70c"
         style="fill:#9069cd;fill-opacity:1" />
      <path
         d="M 12.563038,0 H 35 v 27 c 0,2.209139 -1.790861,4 -4,4 H 0 V 12.563038 C 0,8.1945956 0.45484549,6.6104931 1.3089503,5.013456 2.163055,3.416419 3.416419,2.163055 5.013456,1.3089503 6.6104931,0.45484549 8.1945956,0 12.563038,0 Z"
         id="Path"
         fill="#eeeeee"
         style="fill:#ffc800;fill-opacity:1" />
    </g>
    <g
       id="g14358"
       transform="matrix(0.15694891,0,0,0.15696123,125.82631,10.559972)"
       style="fill:#ce82ff;fill-opacity:1">
	<path
   fill="#006ca2"
   d="M 64,0.29 C 28.87,0.29 0.29,28.87 0.28,64 v 0 c 0.01,35.13 28.59,63.71 63.72,63.71 35.13,0 63.71,-28.59 63.71,-63.71 v 0 C 127.71,28.87 99.13,0.29 64,0.29 Z M 89.2,85.25 C 82.96,83.4 75.8,82.16 67.61,81.87 V 67.61 H 91.79 C 91.53,74.23 90.58,80.06 89.2,85.25 Z M 38.75,42.74 c 6.26,1.86 13.43,3.11 21.64,3.4 V 60.39 H 36.16 c 0.25,-6.63 1.2,-12.46 2.59,-17.65 z M 36.22,67.61 H 60.39 V 81.86 C 52.22,82.15 45.08,83.38 38.84,85.23 37.44,80.04 36.48,74.22 36.22,67.61 Z M 91.79,60.39 H 67.61 V 46.13 c 8.17,-0.29 15.31,-1.52 21.55,-3.37 1.4,5.2 2.37,11.02 2.63,17.63 z m 28.58,0 h -21.3 c -0.26,-7.53 -1.35,-14.17 -2.96,-20.05 5.73,-2.35 10.52,-5.19 14.49,-8.17 5.58,8.14 9.1,17.79 9.77,28.22 z M 106.14,26.48 C 102.75,28.99 98.7,31.41 93.86,33.44 89.56,22.2 83.32,14.38 77.76,9.21 c 11.15,2.8 20.95,8.95 28.38,17.27 z m -19.22,9.4 c -5.58,1.64 -11.97,2.75 -19.31,3.03 V 10.3 c 5.43,3.88 13.95,11.8 19.31,25.58 z M 60.39,10.22 V 38.91 C 53.01,38.63 46.57,37.5 40.96,35.84 46.33,21.94 54.92,14.06 60.39,10.22 Z M 50.24,9.21 C 44.69,14.38 38.45,22.2 34.15,33.44 29.31,31.41 25.26,28.99 21.87,26.48 29.29,18.16 39.1,12.01 50.24,9.21 Z M 17.41,32.17 c 3.97,2.97 8.77,5.82 14.49,8.16 -1.61,5.88 -2.7,12.52 -2.96,20.05 H 7.64 C 8.3,49.96 11.83,40.31 17.41,32.17 Z M 28.94,67.61 C 29.2,75.14 30.3,81.78 31.9,87.67 26.17,90.01 21.38,92.86 17.41,95.83 11.83,87.69 8.3,78.04 7.63,67.61 Z m -7.06,33.91 c 3.38,-2.51 7.43,-4.92 12.28,-6.96 4.3,11.23 10.53,19.06 16.09,24.23 -11.15,-2.8 -20.96,-8.95 -28.37,-17.27 z m 19.2,-9.4 c 5.58,-1.64 11.97,-2.75 19.3,-3.03 v 28.62 C 54.97,113.83 46.45,105.9 41.08,92.12 Z m 26.53,25.65 V 89.09 c 7.37,0.28 13.79,1.4 19.38,3.05 -5.36,13.9 -13.91,21.79 -19.38,25.63 z m 10.16,1.02 c 5.55,-5.17 11.79,-12.99 16.09,-24.23 4.84,2.03 8.89,4.45 12.27,6.96 -7.42,8.32 -17.22,14.47 -28.36,17.27 z M 110.6,95.83 c -3.97,-2.97 -8.77,-5.82 -14.49,-8.16 1.61,-5.89 2.7,-12.52 2.96,-20.06 h 21.3 c -0.66,10.43 -4.19,20.08 -9.77,28.22 z"
   id="path14356"
   style="fill:#9069cd;fill-opacity:1" />

</g>
  </g>
</svg>
